<?xml version="1.0" encoding="utf-8"?>
<!-- Generator: Adobe Illustrator 17.0.0, SVG Export Plug-In . SVG Version: 6.00 Build 0)  -->
<!DOCTYPE svg PUBLIC "-//W3C//DTD SVG 1.1//EN" "http://www.w3.org/Graphics/SVG/1.1/DTD/svg11.dtd">
<svg version="1.1" id="Layer_1" xmlns="http://www.w3.org/2000/svg" xmlns:xlink="http://www.w3.org/1999/xlink" x="0px" y="0px"
	 width="450px" height="220px" viewBox="0 0 450 220" enable-background="new 0 0 450 220" xml:space="preserve">
<path fill="#359AD5" d="M372.347,91.003c-7.197,0-6.446,8.846-6.745,18.289h11.992C377.594,98.648,377.594,91.003,372.347,91.003z
	 M365.602,124.733c0,8.545,4.196,10.193,11.243,10.193c8.095,0,19.037-2.4,23.235-3.149v20.689
	c-3.297,1.2-13.342,4.046-23.235,4.046c-17.84,0-39.579-2.848-39.579-40.924c0-33.581,17.091-41.526,35.08-41.526
	c18.439,0,31.782,9.444,31.782,41.225v9.445H365.602L365.602,124.733z M295.281,95.05c-1.648,0-4.946,1.349-6.745,2.4v38.376
	c1.348,0.451,3.747,0.751,4.797,0.751c4.948,0,7.946-4.197,7.946-21.737C301.278,96.999,299.928,95.05,295.281,95.05z
	 M298.579,156.514c-3.598,0-7.345-1.049-10.043-1.65v28.634h-28.483V75.561h23.085l4.199,4.947
	c4.347-3.897,10.494-6.446,16.939-6.446c11.693,0,25.485,3.297,25.485,40.775C329.76,155.916,309.073,156.514,298.579,156.514z
	 M233.812,65.818c-7.944,0-14.09-6.446-14.09-14.242s6.146-14.242,14.09-14.242c7.947,0,14.093,6.446,14.093,14.242
	S241.759,65.818,233.812,65.818z M219.572,155.015V75.561h28.483v79.453H219.572z M202.325,97.899c-4.497,0-7.946,1.8-9.445,2.699
	v54.418h-28.483V75.561h22.637l4.197,7.645c1.649-4.947,6.146-9.145,12.743-9.145c4.497,0,7.496,0.9,8.844,1.649v23.685
	C209.969,98.648,206.222,97.899,202.325,97.899z M148.2,134.927c1.799,0,8.096-0.899,10.193-1.199v20.238
	c-4.347,1.048-13.941,2.548-20.237,2.548c-8.095,0-23.236-0.898-23.236-22.934V93.701h-10.494v-18.14h10.494l3.598-17.989
	l24.885-5.996v23.986h14.991l-3.748,18.14h-11.243v34.779C143.403,133.877,145.052,134.927,148.2,134.927z M74.585,98.498
	c0,3.148,2.099,4.197,7.045,6.446l2.999,1.35c7.045,3.148,16.789,8.245,16.789,23.236c0,23.985-17.84,26.983-30.583,26.983
	c-8.245,0-16.939-1.949-22.787-3.746v-20.539c5.097,1.352,13.943,3.448,17.84,3.448c4.347,0,7.646-0.599,7.646-4.497
	c0-2.998-2.099-4.347-6.747-6.445l-3.598-1.65c-6.746-3.149-16.34-8.544-16.34-23.086c0-21.288,16.64-25.934,30.583-25.934
	c10.494,0,17.39,2.398,20.988,3.748v19.938c-4.198-1.349-12.742-3.148-17.839-3.148C77.134,94.601,74.585,95.5,74.585,98.498z"/>
</svg>
